HIERARCHY
ROOT Hips
{
	OFFSET	0.00	0.00	0.00
	CHANNELS 6 Xposition Yposition Zposition Zrotation Xrotation Yrotation
	JOINT LeftUpLeg
	{
		OFFSET	 0.126116	-0.014019	-0.065224
		CHANNELS 3 Zrotation Xrotation Yrotation
		JOINT LeftLeg
		{
			OFFSET	 0.000000	 0.000000	 0.569914
			CHANNELS 3 Zrotation Xrotation Yrotation
			JOINT LeftFoot
			{
				OFFSET	 0.000000	 0.000000	 0.544423
				CHANNELS 3 Zrotation Xrotation Yrotation
				JOINT LeftToeBase
				{
					OFFSET	 0.000000	 0.000000	 0.207117
					CHANNELS 3 Zrotation Xrotation Yrotation
					End Site
					{
						OFFSET	 0.000000	 0.000000	 0.207117
					}
				}
			}
		}
	}
	JOINT RightUpLeg
	{
		OFFSET	-0.124023	-0.008373	-0.065224
		CHANNELS 3 Zrotation Xrotation Yrotation
		JOINT RightLeg
		{
			OFFSET	 0.000000	 0.000000	 0.570047
			CHANNELS 3 Zrotation Xrotation Yrotation
			JOINT RightFoot
			{
				OFFSET	 0.000000	 0.000000	 0.544354
				CHANNELS 3 Zrotation Xrotation Yrotation
				JOINT RightToeBase
				{
					OFFSET	 0.000000	 0.000000	 0.207540
					CHANNELS 3 Zrotation Xrotation Yrotation
					End Site
					{
						OFFSET	 0.000000	 0.000000	 0.207540
					}
				}
			}
		}
	}
	JOINT Spine
	{
		OFFSET	 0.000184	-0.007763	 0.117403
		CHANNELS 3 Zrotation Xrotation Yrotation
		JOINT Spine1
		{
			OFFSET	 0.000000	 0.000000	 0.137269
			CHANNELS 3 Zrotation Xrotation Yrotation
			JOINT Spine2
			{
				OFFSET	 0.000000	 0.000000	 0.156879
				CHANNELS 3 Zrotation Xrotation Yrotation
				JOINT LeftShoulder
				{
					OFFSET	 0.080501	-0.002496	 0.160144
					CHANNELS 3 Zrotation Xrotation Yrotation
					JOINT LeftArm
					{
						OFFSET	 0.000000	 0.000000	 0.164363
						CHANNELS 3 Zrotation Xrotation Yrotation
						JOINT LeftForeArm
						{
							OFFSET	 0.000000	 0.000000	 0.364576
							CHANNELS 3 Zrotation Xrotation Yrotation
							JOINT LeftHand
							{
								OFFSET	 0.000000	 0.000000	 0.360812
								CHANNELS 3 Zrotation Xrotation Yrotation
								JOINT LeftHandIndex1
								{
									OFFSET	 0.000000	 0.000000	 0.086006
									CHANNELS 3 Zrotation Xrotation Yrotation
									JOINT LeftHandIndex2
									{
										OFFSET	 0.000000	 0.000000	 0.047236
										CHANNELS 3 Zrotation Xrotation Yrotation
										JOINT LeftHandIndex3
										{
											OFFSET	-0.004284	-0.000551	 0.038166
											CHANNELS 3 Zrotation Xrotation Yrotation
											End Site
											{
												OFFSET	-0.004284	-0.000551	 0.038166
											}
										}
									}
								}
							}
						}
					}
				}
				JOINT Neck
				{
					OFFSET	 0.000000	 0.000000	 0.176489
					CHANNELS 3 Zrotation Xrotation Yrotation
					JOINT Head
					{
						OFFSET	 0.000000	-0.001747	 0.077940
						CHANNELS 3 Zrotation Xrotation Yrotation
						End Site
						{
							OFFSET	 0.000000	-0.001747	 0.077940
						}
					}
				}
				JOINT RightShoulder
				{
					OFFSET	-0.080363	 0.000306	 0.159706
					CHANNELS 3 Zrotation Xrotation Yrotation
					JOINT RightArm
					{
						OFFSET	 0.000000	 0.000000	 0.164196
						CHANNELS 3 Zrotation Xrotation Yrotation
						JOINT RightForeArm
						{
							OFFSET	 0.000000	 0.000000	 0.365611
							CHANNELS 3 Zrotation Xrotation Yrotation
							JOINT RightHand
							{
								OFFSET	 0.000000	 0.000000	 0.360648
								CHANNELS 3 Zrotation Xrotation Yrotation
								JOINT RightHandIndex1
								{
									OFFSET	 0.000000	 0.000000	 0.069977
									CHANNELS 3 Zrotation Xrotation Yrotation
									JOINT RightHandIndex2
									{
										OFFSET	 0.000000	 0.000000	 0.052305
										CHANNELS 3 Zrotation Xrotation Yrotation
										JOINT RightHandIndex3
										{
											OFFSET	 0.009002	-0.000782	 0.042196
											CHANNELS 3 Zrotation Xrotation Yrotation
											End Site
											{
												OFFSET	 0.009002	-0.000782	 0.042196
											}
										}
									}
								}
							}
						}
					}
				}
			}
		}
	}
}
MOTION
Frames:    8
Frame Time: 0.03333334
 0.102998	 3.192096	 0.991714	-0.383577	-2.091295	 0.058535	 6.431472	-1.912662	-178.410600	-2.548487	-35.271760	 1.204444	 15.880180	 89.897210	-14.914100	-2.376331	 30.395460	-0.042566	 1.644610	-29.954130	 179.481800	 20.188710	-72.097490	 23.626530	 178.991200	 89.098430	-171.625100	 2.378521	 29.684720	 0.028291	 5.115900	 4.517915	 1.161117	 8.451044	-1.800553	 1.586543	 11.519870	-4.628724	 1.228148	-91.794790	 78.137750	 178.891600	 35.640370	 63.430560	-47.619610	-10.660080	-3.162064	-32.518830	 3.654883	-2.114947	-5.365572	-3.812334	 37.924440	-2.927599	-2.450526	 36.184240	 0.754587	-1.378229	 35.397820	-2.634230	-0.321292	 4.052559	-1.919975	 3.351944	-12.168120	-0.683163	 89.792330	 78.689170	 179.517500	-41.799130	 71.372510	 43.741910	 3.459042	-6.615153	 28.911900	-13.065580	-3.208579	 9.587088	 6.437017	 35.671460	-0.771858	 2.830251	 35.756010	-7.813440	-2.350882	 35.473990	 5.254307
 0.106750	 3.125028	 0.988251	-0.094320	-1.596964	-0.689438	 5.968499	 3.668955	-177.188400	-3.241747	-29.901240	 0.929884	 12.992890	 89.681630	-12.404400	-2.374182	 30.788340	-0.051323	 2.064640	-33.422540	 179.770400	 12.224860	-62.546000	 15.011250	-171.641600	 89.082080	 179.426700	 2.378630	 29.663590	 0.027819	 7.301542	 4.414466	 2.045485	 7.797875	-2.015755	 1.514963	 10.917660	-4.863088	 1.185763	-91.767350	 78.689880	 178.769000	 34.912820	 61.847580	-49.071040	-10.345560	-3.335052	-34.778550	 3.756637	-2.098636	-5.368381	-3.812334	 37.924440	-2.927599	-2.450526	 36.184240	 0.754587	-1.378229	 35.397820	-2.634230	-0.368571	 4.230587	-2.518046	 3.350626	-12.556450	-0.462981	 89.780680	 78.142050	 179.452900	-41.625550	 71.558700	 42.700870	 3.750339	-6.674995	 30.186110	-12.716650	-3.198793	 9.593163	 6.437017	 35.671460	-0.771858	 2.830251	 35.756010	-7.813440	-2.350882	 35.473990	 5.254307
 0.108363	 3.063239	 0.986170	 0.088908	-1.021366	-0.945698	 6.658669	 9.864016	-177.058200	-3.546766	-22.079460	 1.279461	 5.982435	 87.966350	-4.474934	-2.363085	 32.621280	-0.092910	 2.453376	-35.066780	 179.687800	 8.482829	-52.645400	 10.485480	-146.749000	 89.521530	 154.955900	 2.388141	 27.565720	-0.017708	 9.308086	 4.079985	 2.391543	 7.334268	-2.235540	 1.509060	 10.381450	-5.017239	 1.141089	-91.757080	 78.870790	 178.752400	 34.482150	 60.769710	-50.156600	-10.338130	-3.272574	-35.960540	 3.557014	-2.114136	-5.365918	-3.812334	 37.924440	-2.927599	-2.450526	 36.184240	 0.754587	-1.378229	 35.397820	-2.634230	-0.298844	 4.379352	-2.900336	 3.279620	-12.766910	-0.443799	 89.776580	 77.962810	 179.453800	-41.485520	 71.827690	 42.217240	 3.915145	-6.633625	 30.253340	-12.689050	-3.199354	 9.592804	 6.437017	 35.671460	-0.771858	 2.830251	 35.756010	-7.813440	-2.350882	 35.473990	 5.254307
 0.109704	 2.986929	 0.982528	 0.468784	-0.785127	-1.262508	 8.255508	 18.702270	-176.845400	-4.021451	-11.619310	 1.574789	 3.588528	 84.109600	 0.278631	-2.332105	 36.637930	-0.188908	 3.165849	-35.863350	 179.780300	 4.738955	-42.312520	 6.475660	-160.154900	 89.428020	 167.741600	 2.379732	 29.443140	 0.022972	 11.554980	 3.759664	 2.664334	 6.814178	-2.419998	 1.562479	 9.793858	-5.094895	 1.082780	-91.752620	 78.941210	 178.725000	 34.411210	 60.263390	-51.309140	-10.424360	-3.229299	-36.148800	 3.529987	-2.112708	-5.366157	-3.812334	 37.924440	-2.927599	-2.450526	 36.184240	 0.754587	-1.378229	 35.397820	-2.634230	-0.137896	 4.356629	-3.209951	 3.263508	-12.677940	-0.320756	 89.774510	 77.892060	 179.421000	-41.245620	 72.291210	 42.029740	 3.877142	-6.480628	 28.819150	-13.116630	-3.212277	 9.584952	 6.437017	 35.671460	-0.771858	 2.830251	 35.756010	-7.813440	-2.350882	 35.473990	 5.254307
 0.107854	 2.913964	 0.980014	 1.138478	-0.914255	-1.273536	 8.381802	 22.319890	-177.970700	-3.222538	-11.601800	 1.700537	 4.553849	 83.579410	-0.054776	-2.289276	 40.754730	-0.296053	 3.148355	-35.218650	 179.603000	 2.967310	-37.557830	 4.637913	-176.006000	 89.072330	-177.332000	 2.368393	 31.524220	 0.069369	 13.253510	 3.886237	 2.366271	 6.175016	-2.408876	 1.503439	 9.167285	-5.021195	 1.007345	-91.760110	 78.800710	 178.677100	 35.204670	 60.520930	-52.482400	-10.394410	-3.235189	-35.039860	 3.742859	-2.097923	-5.368535	-3.812334	 37.924440	-2.927599	-2.450526	 36.184240	 0.754587	-1.378229	 35.397820	-2.634230	-0.112912	 4.194765	-3.230596	 3.216811	-12.325280	-0.006344	 89.776890	 78.027340	 179.301200	-40.398740	 72.896040	 41.255800	 3.859740	-6.276283	 26.922400	-13.709410	-3.232326	 9.571894	 6.437017	 35.671460	-0.771858	 2.830251	 35.756010	-7.813440	-2.350882	 35.473990	 5.254307
 0.103867	 2.829211	 0.977179	 1.725047	-1.112109	-1.149548	 8.831692	 26.216670	-179.738800	-2.021759	-11.571660	 1.897120	 5.501946	 80.655460	 0.140152	-2.212301	 46.114910	-0.453673	 2.913446	-33.724040	 179.052500	 3.886470	-38.462590	 5.239784	 19.631020	 89.558540	-12.553860	 2.376007	 30.172210	 0.039060	 14.959800	 3.409537	 2.060908	 5.575516	-2.274866	 1.320400	 8.468036	-4.775808	 0.912203	-91.763570	 78.732870	 178.616400	 36.507500	 61.524410	-53.024030	-10.382160	-3.174308	-32.618350	 4.024364	-2.114545	-5.365103	-3.812334	 37.924440	-2.927599	-2.450526	 36.184240	 0.754587	-1.378229	 35.397820	-2.634230	-0.059771	 4.222791	-3.280675	 3.118501	-11.859130	 0.580790	 89.779410	 78.106270	 179.337000	-38.612610	 73.567510	 39.081570	 3.809794	-6.007740	 24.905930	-14.318300	-3.258091	 9.554180	 6.437017	 35.671460	-0.771858	 2.830251	 35.756010	-7.813440	-2.350882	 35.473990	 5.254307
 0.098804	 2.740844	 0.975565	 2.491780	-1.622108	-0.843944	 9.634585	 29.679350	 177.967000	-1.080243	-11.548900	 2.032951	 5.633628	 74.018950	 1.160577	-2.133165	 50.172740	-0.591838	 2.016371	-31.776320	 177.930700	 6.808010	-42.047250	 7.239290	 7.326896	 86.356000	 0.874199	 2.390587	 26.938680	-0.031075	 16.401470	 2.763193	 1.506629	 5.003101	-2.077234	 1.071405	 7.809498	-4.374305	 0.813853	-91.772550	 78.583760	 178.545100	 37.824750	 63.196930	-52.261360	-10.359020	-3.126209	-29.951250	 4.420090	-2.117536	-5.363794	-3.812334	 37.924440	-2.927599	-2.450526	 36.184240	 0.754587	-1.378229	 35.397820	-2.634230	 0.033619	 4.474991	-3.155275	 3.059897	-11.313240	 1.121037	 89.783890	 78.268120	 179.362500	-36.094810	 74.033130	 35.770090	 3.707668	-5.691551	 23.116340	-14.756720	-3.286196	 9.534471	 6.437017	 35.671460	-0.771858	 2.830251	 35.756010	-7.813440	-2.350882	 35.473990	 5.254307
 0.090618	 2.650524	 0.981027	 3.319873	-2.273935	-1.282211	 7.630280	 23.615370	 177.008100	-0.897856	-28.194340	 1.986331	 3.708721	 67.037800	 0.233133	-2.140897	 49.820950	-0.579056	 1.446177	-29.348700	 177.670000	 7.145850	-45.908930	 7.748928	 6.123322	 84.426590	 1.370017	 2.402490	 22.773810	-0.117448	 17.965110	 2.352714	 1.742446	 4.373653	-1.909215	 1.071679	 7.063185	-3.980707	 0.711772	-91.768020	 78.651170	 178.509800	 38.231080	 65.700300	-49.796960	-10.607180	-3.171178	-27.221830	 5.146322	-2.151531	-5.354393	-3.812334	 37.924440	-2.927599	-2.450526	 36.184240	 0.754587	-1.378229	 35.397820	-2.634230	 0.217431	 4.424430	-3.292227	 2.993259	-10.337390	 1.382326	 89.782090	 78.203190	 179.382900	-34.210250	 74.166670	 33.384460	 3.476537	-5.373048	 21.546380	-15.113890	-3.320360	 9.509580	 6.437017	 35.671460	-0.771858	 2.830251	 35.756010	-7.813440	-2.350882	 35.473990	 5.254307
